<svg width="576" height="512" viewBox="0 0 576 512" fill="none" xmlns="http://www.w3.org/2000/svg">
<path d="M176 479.5H80.5L96.5 511.5H160L176 479.5Z" fill="#414141"/>
<path d="M495.5 480H400L416 512H479.5L495.5 480Z" fill="#414141"/>
<rect width="576" height="480" rx="60" fill="#414141"/>
<path d="M512 176C512 202.51 490.51 224 464 224C437.49 224 416 202.51 416 176C416 149.49 437.49 128 464 128C490.51 128 512 149.49 512 176Z" fill="#8F8F8F"/>
<path d="M448 216C448 207.163 455.163 200 464 200C472.837 200 480 207.163 480 216V336C480 344.837 472.837 352 464 352C455.163 352 448 344.837 448 336V216Z" fill="#8F8F8F"/>
<circle cx="225.5" cy="238.5" r="161.5" transform="rotate(90 225.5 238.5)" fill="#696969"/>
<circle cx="226" cy="238" r="82" transform="rotate(90 226 238)" fill="#8F8F8F"/>
<path d="M366.5 233C369.538 233 372 235.462 372 238.5V238.5C372 241.538 369.538 244 366.5 244L333.5 244C330.462 244 328 241.538 328 238.5V238.5C328 235.462 330.462 233 333.5 233L366.5 233Z" fill="#8F8F8F"/>
<path d="M118.5 233C121.538 233 124 235.462 124 238.5V238.5C124 241.538 121.538 244 118.5 244L85.5 244C82.4624 244 80 241.538 80 238.5V238.5C80 235.462 82.4624 233 85.5 233L118.5 233Z" fill="#8F8F8F"/>
<path d="M231.5 379C231.5 382.038 229.038 384.5 226 384.5V384.5C222.962 384.5 220.5 382.038 220.5 379L220.5 346C220.5 342.962 222.962 340.5 226 340.5V340.5C229.038 340.5 231.5 342.962 231.5 346L231.5 379Z" fill="#8F8F8F"/>
<path d="M231.5 131C231.5 134.038 229.038 136.5 226 136.5V136.5C222.962 136.5 220.5 134.038 220.5 131L220.5 98C220.5 94.9624 222.962 92.5 226 92.5V92.5C229.038 92.5 231.5 94.9624 231.5 98L231.5 131Z" fill="#8F8F8F"/>
</svg>
